<svg width="244" height="95" viewBox="0 0 244 95" fill="none" xmlns="http://www.w3.org/2000/svg">
<g clip-path="url(#clip0_1387_3145)">
<path fill-rule="evenodd" clip-rule="evenodd" d="M170.784 31.9533H158.392L151.333 51.02C151.647 49.4067 151.725 48.16 151.725 47.6467C151.725 39.6533 146.863 31.9533 135.333 31.9533H122.078V50.9467C120.902 45.52 115.647 44.1267 109.137 42.22C106.706 41.4867 105.373 40.3867 105.843 39.36C106.235 38.48 107.804 38.1867 109.608 38.4067C112.353 38.7733 114.627 39.6533 116.745 40.7533L119.647 33.9333C119.02 33.64 114.235 31 108.275 31C100.039 31 94.7843 34.74 94.7843 40.3133C94.7843 45.3 98.0784 48.16 104.039 49.7733C110.471 51.5333 112.118 52.2667 111.961 53.9533C111.804 55.42 107.804 57.2533 98 51.6067L95.098 57.2533L86.0784 31.9533H73.6863L62 63.4867H71.7255L73.6078 58.4267H85.0588L87.0196 63.4867H97.2157L96.0392 60.4067C99.4902 62.24 103.804 64 108.902 64C116.745 64 120.98 59.9667 122 56.1533V63.4867H135.176C143.02 63.4867 147.176 59.9667 149.294 56.2267L146.627 63.4867H156.353L158.314 58.4267H169.922L171.647 63.4867H182L170.784 31.9533ZM75.8039 51.3133L79.4118 40.46L82.8627 51.3133H75.8039ZM131.882 55.3467V40.0933H134.235C137.529 40.0933 141.137 41.34 141.137 47.72C141.137 53.3667 137.922 55.3467 134.235 55.3467H131.882ZM160.745 51.3133L164.196 40.6067L167.804 51.3133H160.745Z" fill="white"/>
</g>
<defs>
<clipPath id="clip0_1387_3145">
<rect width="120" height="33" fill="white" transform="translate(62 31)"/>
</clipPath>
</defs>
</svg>
