<svg width="625" height="688" viewBox="0 0 625 688" fill="none" xmlns="http://www.w3.org/2000/svg">
<g clip-path="url(#clip0_161_6367)">
<path d="M618.353 290.149C616.617 288.72 600.991 277.007 567.427 277.007C558.746 277.007 549.775 277.865 541.095 279.293C534.729 235.583 497.981 214.443 496.534 213.3L487.564 208.157L481.777 216.443C474.543 227.585 469.045 240.155 465.862 253.011C459.786 277.865 463.547 301.291 476.279 321.288C460.943 329.859 436.059 331.859 430.851 332.144H19.9644C9.25858 332.144 0.577714 340.715 0.577714 351.286C-0.00024521 386.71 6.07563 422.135 18.5185 455.559C32.6962 492.127 53.8199 519.267 81.0194 535.837C111.691 554.406 161.749 564.976 218.173 564.976C243.637 564.976 269.099 562.692 294.274 558.12C329.285 551.834 362.851 539.836 393.812 522.41C419.185 507.887 442.049 489.365 461.521 467.559C494.219 431.277 513.605 390.71 527.783 354.714H533.57C569.161 354.714 591.152 340.715 603.305 328.716C611.407 321.288 617.483 312.147 621.824 301.863L624.429 294.435L618.353 290.149Z" fill="#0091E2"/>
<path d="M58.1611 320.43H113.138C115.743 320.43 118.058 318.432 118.058 315.575V267.009C118.058 264.437 116.032 262.153 113.138 262.153H58.1611C55.5572 262.153 53.2422 264.151 53.2422 267.009V315.575C53.5312 318.432 55.5572 320.431 58.1611 320.431V320.43ZM133.972 320.43H188.95C191.554 320.43 193.869 318.432 193.869 315.575V267.009C193.869 264.437 191.843 262.153 188.95 262.153H133.971C131.367 262.153 129.052 264.151 129.052 267.009V315.575C129.342 318.432 131.368 320.431 133.971 320.431M211.229 320.431H266.207C268.811 320.431 271.126 318.432 271.126 315.575V267.009C271.126 264.437 269.1 262.153 266.207 262.153H211.229C208.625 262.153 206.31 264.151 206.31 267.009V315.575C206.31 318.432 208.336 320.431 211.229 320.431ZM287.329 320.431H342.307C344.911 320.431 347.226 318.432 347.226 315.575V267.009C347.226 264.437 345.2 262.153 342.307 262.153H287.329C284.725 262.153 282.41 264.151 282.41 267.009V315.575C282.41 318.432 284.725 320.431 287.329 320.431ZM133.972 251.011H188.949C191.553 251.011 193.868 248.726 193.868 246.154V197.588C193.868 195.016 191.842 192.731 188.949 192.731H133.971C131.367 192.731 129.052 194.731 129.052 197.588V246.154C129.342 248.725 131.369 251.011 133.972 251.011ZM211.229 251.011H266.207C268.811 251.011 271.126 248.726 271.126 246.154V197.588C271.126 195.016 269.1 192.731 266.207 192.731H211.229C208.625 192.731 206.31 194.731 206.31 197.588V246.154C206.31 248.725 208.336 251.011 211.229 251.011ZM287.329 251.011H342.307C344.911 251.011 347.226 248.726 347.226 246.154V197.588C347.226 195.016 344.91 192.731 342.307 192.731H287.329C284.725 192.731 282.41 194.731 282.41 197.588V246.154C282.41 248.725 284.725 251.011 287.329 251.011ZM287.329 181.304H342.307C344.911 181.304 347.226 179.304 347.226 176.448V127.881C347.226 125.31 344.91 123.024 342.307 123.024H287.329C284.725 123.024 282.41 125.024 282.41 127.881V176.448C282.41 179.018 284.725 181.304 287.329 181.304ZM364.008 320.431H418.986C421.59 320.431 423.905 318.432 423.905 315.575V267.009C423.905 264.437 421.88 262.153 418.986 262.153H364.009C361.404 262.153 359.089 264.151 359.089 267.009V315.575C359.379 318.432 361.405 320.431 364.009 320.431" fill="#0091E2"/>
</g>
<defs>
<clipPath id="clip0_161_6367">
<rect width="624.429" height="688" fill="white"/>
</clipPath>
</defs>
</svg>
